<?xml version="1.0" encoding="iso-8859-1"?>
<!-- Generator: Adobe Illustrator 19.0.0, SVG Export Plug-In . SVG Version: 6.00 Build 0)  -->
<svg version="1.1" id="Capa_1" xmlns="http://www.w3.org/2000/svg" xmlns:xlink="http://www.w3.org/1999/xlink" x="0px" y="0px"
	 viewBox="0 0 512 512" style="enable-background:new 0 0 512 512;" xml:space="preserve">
<circle style="fill:#DFE1DF;" cx="256" cy="256" r="234.667"/>
<path style="fill:#303C42;" d="M405.354,224c0-76.458-62.208-138.667-138.667-138.667c-5.896,0-10.667,4.771-10.667,10.667v117.333
	H149.354v-32c0-5.896-4.771-10.667-10.667-10.667h-21.333c-5.896,0-10.667,4.771-10.667,10.667c0,5.896,4.771,10.667,10.667,10.667
	h10.667v32c0,51.465,28.247,96.376,69.991,120.303c-15.943,6.186-27.324,21.59-27.324,39.697c0,23.531,19.146,42.667,42.667,42.667
	s42.667-19.135,42.667-42.667c0-8.289-2.475-15.97-6.582-22.523c5.664,0.707,11.396,1.19,17.249,1.19
	c5.853,0,11.585-0.483,17.249-1.19c-4.107,6.553-6.582,14.234-6.582,22.523c0,23.531,19.146,42.667,42.667,42.667
	s42.667-19.135,42.667-42.667c0-18.107-11.382-33.51-27.324-39.697C377.107,320.376,405.354,275.465,405.354,224z"/>
<g>
	<circle style="fill:#5C6671;" cx="213.333" cy="384" r="21.333"/>
	<circle style="fill:#5C6671;" cx="320" cy="384" r="21.333"/>
</g>
<g>
	<path style="fill:#1E88E5;" d="M383.542,213.333H294.75l66.333-58.958C373.5,171.177,381.563,191.385,383.542,213.333z"/>
	<path style="fill:#1E88E5;" d="M277.354,107.146c26.771,2.427,50.979,13.875,69.542,31.292l-69.542,61.813V107.146z"/>
	<path style="fill:#1E88E5;" d="M266.688,341.333c-61.104,0-111.458-46.948-116.854-106.667h116.792c0.042,0,0.083,0,0.125,0
		h116.792C378.146,294.385,327.792,341.333,266.688,341.333z"/>
</g>
<path style="opacity:0.1;enable-background:new    ;" d="M360.635,213.333h22.906c-1.979-21.948-10.042-42.156-22.458-58.958
	l-3.577,3.18c3.341,10.895,5.16,22.456,5.16,34.445C362.667,199.296,361.91,206.406,360.635,213.333z"/>
<path style="opacity:0.1;enable-background:new    ;" d="M245.333,309.333c-33.527,0-63.693-14.138-85.076-36.686
	c18.549,40.411,59.129,68.686,106.43,68.686c61.104,0,111.458-46.948,116.854-106.667h-28.996
	C337.465,278.345,295.063,309.333,245.333,309.333z"/>
<path style="fill:#EE3124;" d="M256,0C114.844,0,0,114.844,0,256s114.844,256,256,256s256-114.844,256-256S397.156,0,256,0z
	 M42.667,256c0-51.151,18.125-98.126,48.249-134.918l300.003,300.003c-36.792,30.124-83.767,48.249-134.918,48.249
	C138.365,469.333,42.667,373.635,42.667,256z M421.085,390.918L121.082,90.915C157.874,60.792,204.849,42.667,256,42.667
	c117.635,0,213.333,95.698,213.333,213.333C469.333,307.151,451.208,354.126,421.085,390.918z"/>
<linearGradient id="SVGID_1_" gradientUnits="userSpaceOnUse" x1="-45.5784" y1="639.555" x2="-23.8278" y2="629.4138" gradientTransform="matrix(21.3333 0 0 -21.3333 996.3334 13791.667)">
	<stop  offset="0" style="stop-color:#FFFFFF;stop-opacity:0.2"/>
	<stop  offset="1" style="stop-color:#FFFFFF;stop-opacity:0"/>
</linearGradient>
<path style="fill:url(#SVGID_1_);" d="M256,0C114.844,0,0,114.844,0,256s114.844,256,256,256s256-114.844,256-256S397.156,0,256,0z"
	/>
<g>
</g>
<g>
</g>
<g>
</g>
<g>
</g>
<g>
</g>
<g>
</g>
<g>
</g>
<g>
</g>
<g>
</g>
<g>
</g>
<g>
</g>
<g>
</g>
<g>
</g>
<g>
</g>
<g>
</g>
</svg>
