<?xml version="1.0" encoding="iso-8859-1"?>
<!-- Generator: Adobe Illustrator 19.0.0, SVG Export Plug-In . SVG Version: 6.00 Build 0)  -->
<svg version="1.1" id="Capa_1" xmlns="http://www.w3.org/2000/svg" xmlns:xlink="http://www.w3.org/1999/xlink" x="0px" y="0px"
	 viewBox="0 0 512.001 512.001" style="enable-background:new 0 0 512.001 512.001;" xml:space="preserve">
<path style="fill:#EFEFEF;" d="M180.791,32.689l-47.427,130.139c10.57-1.838,30.578-3.995,48.438,1.557
	c21.154,6.575,64.991,8.417,87.99-2.25l30.593-83.947L180.791,32.689z"/>
<path style="fill:#FAC51C;" d="M181.802,164.386c-17.861-5.552-37.868-3.396-48.438-1.557l-28.996,79.565
	c-9.003,24.703-0.529,51.901,19.165,68.713c2.563,2.188,5.307,4.209,8.237,6.016c3.552,2.191,19.541,8.274,23.628,8.99
	c3.374,0.59,6.743,0.896,10.082,0.953c25.661,0.442,49.481-14.471,58.483-39.172l45.83-125.757
	C246.792,172.803,202.956,170.961,181.802,164.386z"/>
<path style="fill:#EFEFEF;" d="M352.866,219.363c15.827-4.973,33.362-3.76,44.363-2.133L329.976,32.689l-74.593,28.379
	l45.002,17.121l-45.002,123.485l4.338,11.906C279.786,228.1,329.874,226.588,352.866,219.363z"/>
<path style="fill:#FAC51C;" d="M406.399,242.394l-9.17-25.163c-11.001-1.627-28.536-2.84-44.363,2.133
	c-22.992,7.225-73.08,8.736-93.145-5.783l27.082,74.313c9.002,24.702,32.822,39.615,58.484,39.172
	c3.338-0.057,6.708-0.363,10.081-0.953c2.18-0.381,21.97-7.967,23.628-8.99c2.931-1.807,5.674-3.828,8.236-6.016
	C406.927,294.294,415.401,267.095,406.399,242.394z"/>
<path d="M477.146,450.44l-43.066,16.384l-53.466-139.488c1.748-0.746,10.102-6.056,13.109-8.625
	c23.327-19.912,32.196-51.958,22.07-79.743L339.371,29.266c-0.916-2.515-2.803-4.557-5.237-5.67
	c-2.433-1.113-5.213-1.205-7.714-0.252L255.382,50.37l-71.037-27.026c-2.501-0.951-5.28-0.861-7.714,0.252
	c-2.434,1.113-4.32,3.155-5.237,5.67L94.972,238.969c-10.126,27.785-1.258,59.831,22.068,79.743
	c3.01,2.57,11.734,8.159,13.392,8.918L78.549,467.533L33.62,450.44c-5.163-1.963-10.939,0.628-12.902,5.791
	c-1.963,5.162,0.629,10.939,5.791,12.902l110.95,42.211c1.17,0.445,2.372,0.656,3.554,0.656c4.031,0,7.83-2.456,9.349-6.447
	c1.963-5.162-0.629-10.939-5.791-12.902l-47.327-18.005l51.876-139.885c7.714,1.905,17.046,2.315,17.472,2.315
	c30.43,0,56.638-17.961,66.768-45.758l22.025-60.437l22.025,60.437c10.13,27.796,36.338,45.757,66.769,45.758
	c0.429,0,15.466-1.803,17.759-2.592l53.453,139.454l-49.19,18.714c-5.162,1.964-7.755,7.741-5.791,12.902
	c1.519,3.992,5.317,6.447,9.349,6.447c1.182,0,2.384-0.211,3.554-0.656l110.949-42.211c5.162-1.964,7.755-7.741,5.791-12.902
	C488.085,451.069,482.308,448.478,477.146,450.44z M186.714,45.642L287.613,84.03l-25.704,70.532
	c-0.003,0.001-21.661,5.189-37.392,5.167c-14.812-0.02-30.042-1.874-39.749-4.891c-8.549-2.658-18.272-4.005-28.898-4.005
	c-2.574,0-5.072,0.082-7.463,0.217C148.373,151.05,186.714,45.642,186.714,45.642z M214.568,284.469
	c-7.218,19.807-26.051,32.606-47.977,32.606c-0.311,0-19.258-0.243-36.565-13.574c-17.718-13.647-23.545-37.702-16.262-57.684
	l26.963-73.987c4.301-0.55,9.533-0.999,15.146-0.999c8.611,0,16.336,1.044,22.962,3.104c11.669,3.627,28.748,5.792,45.685,5.792
	c8.379,0,18.818-0.515,29.09-2.386L214.568,284.469z M264.82,204.982l44.96-123.369c0.585-1.605,0.733-3.265,0.505-4.847
	c-0.504-3.48-2.831-6.587-6.345-7.924l-20.436-7.774l40.548-15.426l58.393,160.228c-0.088-0.003-14.698-1.372-32.578,3.953
	c-9.627,2.867-24.628,4.882-39.265,4.882C290.399,214.706,265.08,205.136,264.82,204.982z M345.115,317.066
	c-22.357,0.109-41.597-12.508-48.917-32.598l-19.396-53.221c12.325,2.86,25.205,3.457,33.802,3.456
	c16.778,0,33.698-2.169,45.26-5.802c6.533-2.053,14.155-3.094,22.653-3.094c3.708,0,7.527,0.197,11.409,0.587l7.077,19.421
	c7.282,19.982,0.746,43.163-16.266,57.685C378.603,305.326,359.123,316.998,345.115,317.066z"/>
<path d="M21.86,87.239l37.25,14.58c1.17,0.46,2.4,0.69,3.64,0.69c1.99,0,3.92-0.58,5.58-1.69c1.7-1.14,2.99-2.75,3.74-4.66
	c2.01-5.14-0.54-10.95-5.67-12.96L29.15,68.62c-3.04-1.19-6.52-0.8-9.22,1.01c-1.7,1.14-2.99,2.75-3.74,4.66
	C14.19,79.42,16.73,85.23,21.86,87.239z"/>
<path d="M94.429,98.789c-1.7,1.13-2.99,2.75-3.74,4.66c-0.97,2.48-0.92,5.2,0.15,7.65c1.07,2.45,3.03,4.33,5.52,5.3
	c1.17,0.46,2.39,0.69,3.64,0.69c1.99,0,3.92-0.58,5.58-1.7c1.69-1.13,2.99-2.74,3.731-4.65c0.98-2.49,0.93-5.21-0.14-7.66
	c-1.08-2.44-3.03-4.33-5.52-5.3C100.609,96.589,97.129,96.979,94.429,98.789z"/>
<path d="M115.089,83.81c2.19,0,4.28-0.7,6.03-2.02c2.13-1.61,3.5-3.96,3.87-6.6c0.37-2.65-0.32-5.28-1.93-7.41
	c-1.9-2.52-4.81-3.97-7.981-3.97c-2.19,0-4.269,0.7-6.03,2.02c-4.39,3.33-5.26,9.61-1.94,14.01
	C109.019,82.36,111.929,83.81,115.089,83.81z"/>
<path d="M82.989,47.94c1.9,2.52,4.81,3.97,7.98,3.97c2.19,0,4.27-0.7,6.02-2.03c2.13-1.61,3.51-3.95,3.88-6.6
	c0.36-2.65-0.32-5.28-1.93-7.41l-24.13-31.9C72.899,1.45,69.989,0,66.829,0c-2.19,0-4.269,0.7-6.019,2.02
	c-4.4,3.33-5.28,9.61-1.95,14.01L82.989,47.94z"/>
<path d="M89.249,132.039c-0.59,0-1.19,0.05-1.77,0.16c-5.43,0.97-9.05,6.18-8.08,11.61c0.86,4.77,4.99,8.23,9.83,8.23
	c0.59,0,1.19-0.05,1.78-0.16c2.63-0.47,4.92-1.93,6.44-4.13c1.53-2.19,2.11-4.85,1.63-7.47
	C98.229,135.499,94.089,132.039,89.249,132.039z"/>
<path d="M59.709,147.339c-0.85-4.77-4.99-8.24-9.83-8.24c-0.59,0-1.19,0.06-1.77,0.16l-39.38,7.07c-2.63,0.47-4.91,1.93-6.44,4.13
	c-1.52,2.19-2.1,4.84-1.63,7.47c0.85,4.78,4.99,8.24,9.83,8.24c0.59,0,1.19-0.05,1.78-0.16l39.37-7.06
	C57.059,157.969,60.689,152.769,59.709,147.339z"/>
<path d="M436.767,88.519c-0.97,2.48-0.91,5.2,0.16,7.65c1.59,3.64,5.19,5.99,9.17,5.99c1.38,0,2.72-0.29,4-0.85l36.641-16.05
	c2.449-1.07,4.329-3.03,5.3-5.52c0.98-2.49,0.92-5.2-0.15-7.65c-1.6-3.64-5.189-5.99-9.17-5.99c-1.38,0-2.729,0.28-4.01,0.84
	l-36.63,16.05C439.627,84.07,437.747,86.029,436.767,88.519z"/>
<path d="M418.767,111.839c0.971-2.48,0.91-5.2-0.16-7.65c-1.59-3.64-5.19-5.99-9.159-5.99c-1.391,0-2.73,0.29-4.011,0.85
	c-2.449,1.07-4.33,3.03-5.3,5.52c-0.979,2.48-0.92,5.2,0.15,7.65c1.59,3.64,5.19,5.99,9.16,5.99c1.39,0,2.739-0.29,4.01-0.85
	C415.907,116.289,417.787,114.329,418.767,111.839z"/>
<path d="M420.877,152.309c0.46,0.07,0.93,0.1,1.39,0.1c4.96,0,9.21-3.71,9.891-8.63c0.37-2.65-0.32-5.28-1.931-7.41
	c-1.609-2.12-3.96-3.5-6.6-3.87c-0.46-0.06-0.93-0.09-1.39-0.09c-4.95,0-9.21,3.71-9.891,8.63c-0.37,2.64,0.32,5.27,1.931,7.4
	C415.887,150.569,418.237,151.949,420.877,152.309z"/>
<path d="M509.467,147.349c-1.61-2.12-3.95-3.5-6.6-3.87l-39.62-5.49c-0.46-0.06-0.931-0.09-1.391-0.09c-4.949,0-9.21,3.71-9.89,8.62
	c-0.75,5.47,3.07,10.53,8.53,11.28l39.63,5.49c0.46,0.07,0.92,0.1,1.38,0.1c4.96,0,9.21-3.71,9.9-8.63
	C511.767,152.119,511.087,149.479,509.467,147.349z"/>
<path d="M409.517,51.21c1.681,1.18,3.65,1.79,5.7,1.79c3.271,0,6.35-1.6,8.22-4.29l22.83-32.84c3.15-4.52,2.03-10.77-2.5-13.92
	c-1.68-1.17-3.649-1.79-5.7-1.79c-3.279,0-6.35,1.61-8.22,4.29l-22.83,32.84C403.867,41.82,404.987,48.06,409.517,51.21z"/>
<path d="M386.678,84.05c1.68,1.18,3.65,1.79,5.7,1.79c3.28,0,6.35-1.6,8.22-4.29c3.15-4.52,2.03-10.77-2.5-13.92
	c-1.689-1.17-3.66-1.79-5.7-1.79c-3.279,0-6.35,1.61-8.22,4.29C381.028,74.66,382.147,80.91,386.678,84.05z"/>
<path d="M145.499,246.499c-2.63,0-5.21,1.07-7.07,2.93s-2.93,4.44-2.93,7.07c0,2.63,1.07,5.21,2.93,7.07
	c1.86,1.86,4.44,2.93,7.07,2.93s5.21-1.07,7.07-2.93c1.86-1.86,2.93-4.44,2.93-7.07c0-2.63-1.07-5.21-2.93-7.07
	C150.709,247.569,148.129,246.499,145.499,246.499z"/>
<path d="M180.999,224.499c-2.63,0-5.21,1.07-7.07,2.93c-1.86,1.86-2.93,4.44-2.93,7.07s1.07,5.21,2.93,7.07
	c1.86,1.86,4.44,2.93,7.07,2.93s5.21-1.07,7.07-2.93c1.86-1.86,2.93-4.44,2.93-7.07s-1.07-5.21-2.93-7.07
	C186.209,225.569,183.629,224.499,180.999,224.499z"/>
<path d="M168.069,192.429c-1.86-1.86-4.44-2.93-7.07-2.93s-5.21,1.07-7.07,2.93c-1.86,1.86-2.93,4.44-2.93,7.07s1.07,5.21,2.93,7.07
	c1.86,1.86,4.44,2.93,7.07,2.93s5.21-1.07,7.07-2.93c1.86-1.86,2.93-4.44,2.93-7.07S169.929,194.289,168.069,192.429z"/>
<path d="M180.999,266.998c-2.63,0-5.21,1.07-7.07,2.93c-1.86,1.86-2.93,4.44-2.93,7.07c0,2.63,1.07,5.21,2.93,7.07
	c1.86,1.86,4.44,2.93,7.07,2.93s5.21-1.07,7.07-2.93c1.86-1.86,2.93-4.44,2.93-7.07c0-2.63-1.07-5.21-2.93-7.07
	C186.209,268.068,183.629,266.998,180.999,266.998z"/>
<path d="M312.498,249.499c-2.63,0-5.21,1.07-7.07,2.93c-1.86,1.86-2.93,4.44-2.93,7.07c0,2.63,1.069,5.21,2.93,7.07
	c1.86,1.86,4.44,2.93,7.07,2.93c2.63,0,5.21-1.07,7.069-2.93c1.86-1.86,2.931-4.44,2.931-7.07c0-2.63-1.07-5.21-2.931-7.07
	C317.708,250.569,315.128,249.499,312.498,249.499z"/>
<path d="M381.567,264.568c1.86-1.86,2.931-4.44,2.931-7.07c0-2.63-1.07-5.21-2.931-7.07c-1.859-1.86-4.439-2.93-7.069-2.93
	c-2.63,0-5.21,1.07-7.07,2.93c-1.86,1.86-2.93,4.44-2.93,7.07c0,2.63,1.069,5.21,2.93,7.07c1.86,1.86,4.44,2.93,7.07,2.93
	C377.128,267.498,379.708,266.428,381.567,264.568z"/>
<path d="M356.748,278.248c-2.63,0-5.21,1.07-7.07,2.93c-1.86,1.86-2.93,4.44-2.93,7.07c0,2.63,1.069,5.21,2.93,7.07
	c1.86,1.86,4.44,2.93,7.07,2.93c2.63,0,5.21-1.07,7.069-2.93c1.86-1.86,2.931-4.44,2.931-7.07c0-2.63-1.07-5.21-2.931-7.07
	C361.958,279.318,359.378,278.248,356.748,278.248z"/>
<g>
</g>
<g>
</g>
<g>
</g>
<g>
</g>
<g>
</g>
<g>
</g>
<g>
</g>
<g>
</g>
<g>
</g>
<g>
</g>
<g>
</g>
<g>
</g>
<g>
</g>
<g>
</g>
<g>
</g>
</svg>
